<svg height="100%" version="1.1" width="100%" xmlns="http://www.w3.org/2000/svg" preserveAspectRatio="xMidYMid meet" viewBox="0 0 600 442" xmlns:xlink="http://www.w3.org/1999/xlink"><desc>Created with Snap</desc><defs/><g id="root" contentwidth="543.8" contentheight="135.7">
          <rect class="background" height="2000%" width="2000%" y="-1000%" x="-1000%" style="" fill="#ffffff"/>
          <rect class="watermarklayer" height="100%" width="100%" y="0" x="0" style="" fill="none"/>
          <g class="content" id="content" transform="matrix(1,0,0,1,64.7,245.75)">
            <g class="icon" style="mask: url(#mask);">
            <svg height="135.7" version="1.1" width="543.8" xmlns="http://www.w3.org/2000/svg" x="-36.599999999999966" y="-92.6"><desc>Created with Snap</desc><defs/><svg xmlns:xlink="http://www.w3.org/1999/xlink" version="1.1" xmlns="http://www.w3.org/2000/svg" viewBox="0 0 543.8 135.7"><defs/><g><path fill="#E54646" stroke="none" paint-order="stroke fill markers" d=" M 32.5 109.86666666666667 L 32.5 123.19999999999999 L 511.29999999999995 109.86666666666667"/><path fill="#2a5caa" stroke="none" paint-order="stroke fill markers" d=" M 511.29999999999995 111.86666666666667 L 511.29999999999995 123.19999999999999 L 231.89999999999998 123.19999999999999"/></g></svg></svg></g>
            <g id="icon_name_and_slogan_gap">
            </g>
            <g class="name_and_slogan" id="name_and_slogan_id">
              <g class="name"><path d="M7.6 5.6 L0.9 -33.8 L8.6 -33.8 L13.8 -4 L21.2 -33.8 L30.2 -33.8 L37.2 -3.7 L42.4 -33.8 L58 -33.8 L52.5 5.6 L31.5 5.6 L25.6 -16.6 L19.7 5.6 L7.6 5.6 Z M80.9 -51.3 L80.9 -38.2 L62.9 -38.2 L62.9 -51.3 L80.9 -51.3 Z M81 -33.5 L81 5.5 L63 5.5 L63 -33.5 L81 -33.5 Z M98.1 -28.6 L98.1 5.4 L89.1 5.4 L89.1 -34.1 L137 -34.1 L137 5.4 L119 5.4 L119 -28.6 L98.1 -28.6 Z M192.8 -55.1 L192.8 5.5 L153.6 5.5 Q149.5 5.5 147.3 3.8 Q145.1 2 145.1 -2.1 L145.1 -33.8 L175.1 -33.8 L175.1 -55.1 L192.8 -55.1 Z M175.1 0 L175.1 -28.3 L154.1 -28.3 L154.1 0 L175.1 0 Z M249.5 -34 L249.5 -6.9 Q249.5 -4 248.5 -1.7 Q247.5 0.6 245.9 2.2 Q244.2 3.8 242 4.5 Q239.8 5.3 237.4 5.2 L200.8 5.2 L200.8 -34 L249.5 -34 Z M209.6 -28.4 L209.6 -0.2 L229.5 -0.2 L229.5 -28.4 L209.6 -28.4 Z M290.1 -26.9 L275.5 -18.6 L275.5 5.4 L257.5 5.4 L257.5 -33.6 L275.5 -33.6 L275.5 -25.8 L290.1 -34.2 L290.1 -26.9 Z M345.5 -28.4 L307.2 -28.4 L307.2 -17.4 L345.5 -17.4 L345.5 -3.6 Q345.5 -1.8 344.9 -0.2 Q344.4 1.4 343.3 2.7 Q342.2 4 340.4 4.7 Q338.7 5.4 336.4 5.4 L298.2 5.4 L298.2 -0.1 L327.5 -0.1 L327.5 -11.8 L298.2 -11.8 L298.2 -24.9 Q298.2 -26.7 298.8 -28.4 Q299.4 -30 300.7 -31.2 Q302 -32.4 303.8 -33.1 Q305.6 -33.8 307.9 -33.8 L345.5 -33.8 L345.5 -28.4 Z M365 3.8 L352.4 3.8 L352.4 -8.8 L365 -8.8 L365 3.8 Z M389.8 0 L413.6 0 L413.6 5.5 L371.8 5.5 L371.8 -33.6 L413.6 -33.6 L413.6 -28.2 L389.8 -28.2 L389.8 0 Z M430.7 -28.6 L430.7 5.4 L421.7 5.4 L421.7 -34.1 L469.7 -34.1 L469.7 5.4 L451.7 5.4 L451.7 -28.6 L430.7 -28.6 Z" style="" fill="#000000" id="namepathdata"/></g>
              <g class="slogan"/>
            </g>
            <g class="border">
            </g>
          </g>
          <defs id="defs">
            <mask xmlns="http://www.w3.org/2000/svg" id="mask">
                <rect id="showAll" fill="white" x="-36.599999999999966" y="-92.6" width="543.8" height="135.7"/>
                <rect id="hideNameBg" fill="black" x="0" y="0" width="0" height="0" stroke-width="2" stroke="black"/>
                <rect id="hideSloganBg" fill="black" x="0" y="0" width="0" height="0" stroke-width="2" stroke="black"/>
            <path d="M7.6 5.6 L0.9 -33.8 L8.6 -33.8 L13.8 -4 L21.2 -33.8 L30.2 -33.8 L37.2 -3.7 L42.4 -33.8 L58 -33.8 L52.5 5.6 L31.5 5.6 L25.6 -16.6 L19.7 5.6 L7.6 5.6 Z M80.9 -51.3 L80.9 -38.2 L62.9 -38.2 L62.9 -51.3 L80.9 -51.3 Z M81 -33.5 L81 5.5 L63 5.5 L63 -33.5 L81 -33.5 Z M98.1 -28.6 L98.1 5.4 L89.1 5.4 L89.1 -34.1 L137 -34.1 L137 5.4 L119 5.4 L119 -28.6 L98.1 -28.6 Z M192.8 -55.1 L192.8 5.5 L153.6 5.5 Q149.5 5.5 147.3 3.8 Q145.1 2 145.1 -2.1 L145.1 -33.8 L175.1 -33.8 L175.1 -55.1 L192.8 -55.1 Z M175.1 0 L175.1 -28.3 L154.1 -28.3 L154.1 0 L175.1 0 Z M249.5 -34 L249.5 -6.9 Q249.5 -4 248.5 -1.7 Q247.5 0.6 245.9 2.2 Q244.2 3.8 242 4.5 Q239.8 5.3 237.4 5.2 L200.8 5.2 L200.8 -34 L249.5 -34 Z M209.6 -28.4 L209.6 -0.2 L229.5 -0.2 L229.5 -28.4 L209.6 -28.4 Z M290.1 -26.9 L275.5 -18.6 L275.5 5.4 L257.5 5.4 L257.5 -33.6 L275.5 -33.6 L275.5 -25.8 L290.1 -34.2 L290.1 -26.9 Z M345.5 -28.4 L307.2 -28.4 L307.2 -17.4 L345.5 -17.4 L345.5 -3.6 Q345.5 -1.8 344.9 -0.2 Q344.4 1.4 343.3 2.7 Q342.2 4 340.4 4.7 Q338.7 5.4 336.4 5.4 L298.2 5.4 L298.2 -0.1 L327.5 -0.1 L327.5 -11.8 L298.2 -11.8 L298.2 -24.9 Q298.2 -26.7 298.8 -28.4 Q299.4 -30 300.7 -31.2 Q302 -32.4 303.8 -33.1 Q305.6 -33.8 307.9 -33.8 L345.5 -33.8 L345.5 -28.4 Z M365 3.8 L352.4 3.8 L352.4 -8.8 L365 -8.8 L365 3.8 Z M389.8 0 L413.6 0 L413.6 5.5 L371.8 5.5 L371.8 -33.6 L413.6 -33.6 L413.6 -28.2 L389.8 -28.2 L389.8 0 Z M430.7 -28.6 L430.7 5.4 L421.7 5.4 L421.7 -34.1 L469.7 -34.1 L469.7 5.4 L451.7 5.4 L451.7 -28.6 L430.7 -28.6 Z" style="stroke-width: 0;" fill="#000000" id="masknamepathdata" stroke="#000000" transform="matrix(1,0,0,1,0,0)"/></mask>
          
          </defs>
        </g>
        </svg>